<?xml version="1.0" encoding="UTF-8" standalone="no"?>
<!-- Created with Inkscape (http://www.inkscape.org/) -->

<svg
   xmlns:dc="http://purl.org/dc/elements/1.1/"
   xmlns:cc="http://creativecommons.org/ns#"
   xmlns:rdf="http://www.w3.org/1999/02/22-rdf-syntax-ns#"
   xmlns:svg="http://www.w3.org/2000/svg"
   xmlns="http://www.w3.org/2000/svg"
   xmlns:sodipodi="http://sodipodi.sourceforge.net/DTD/sodipodi-0.dtd"
   xmlns:inkscape="http://www.inkscape.org/namespaces/inkscape"
   width="172.88023"
   height="250"
   viewBox="0 0 42.983244 127.12346"
   version="1.1"
   id="svg8"
   inkscape:version="0.92.2 5c3e80d, 2017-08-06"
   sodipodi:docname="grey.svg">
  <defs
     id="defs2" />
  <sodipodi:namedview
     id="base"
     pagecolor="#ffffff"
     bordercolor="#666666"
     borderopacity="1.0"
     inkscape:pageopacity="0.0"
     inkscape:pageshadow="2"
     inkscape:zoom="1.9526897"
     inkscape:cx="63.290556"
     inkscape:cy="124.13408"
     inkscape:document-units="mm"
     inkscape:current-layer="layer1"
     showgrid="false"
     inkscape:window-width="1440"
     inkscape:window-height="799"
     inkscape:window-x="0"
     inkscape:window-y="1"
     inkscape:window-maximized="1"
     fit-margin-top="0"
     fit-margin-left="0"
     fit-margin-right="0"
     fit-margin-bottom="0" />
  <metadata
     id="metadata5">
    <rdf:RDF>
      <cc:Work
         rdf:about="">
        <dc:format>image/svg+xml</dc:format>
        <dc:type
           rdf:resource="http://purl.org/dc/dcmitype/StillImage" />
        <dc:title />
      </cc:Work>
    </rdf:RDF>
  </metadata>
  <g
     inkscape:label="Layer 1"
     inkscape:groupmode="layer"
     id="layer1"
     transform="translate(-88.627013,-8.8296061)">
    <rect
       style="fill:#a29a9a;fill-opacity:0.95260662;stroke:none;stroke-width:1.08971894;stroke-linecap:square;stroke-linejoin:round;stroke-miterlimit:4;stroke-dasharray:none;stroke-opacity:1;paint-order:stroke markers fill"
       id="rect10"
       width="87.908531"
       height="127.12346"
       x="66.164368"
       y="8.8296061"
       ry="7.0366001" />
    <path
       style="fill:#000000;stroke-width:0.35614765"
       d=""
       id="path886"
       inkscape:connector-curvature="0" />
    <path
       id="path2079"
       d="m 119.41203,114.17671 c -0.97036,0.20024 -1.88938,0.42102 -2.75707,0.65719 -2.07935,0.56476 -3.87632,1.27841 -5.41145,1.96126 -0.9909,0.44154 -1.34516,0.63664 -2.64411,1.32976 -2.99838,1.58647 -4.79535,3.64528 -4.79535,6.72582 0,3.48098 2.85462,5.90433 7.39325,5.90433 4.53864,0 7.39326,-2.62872 7.39326,-6.10971 0,-3.47585 -3.13186,-5.88894 0.82147,-10.46865 z m -14.40658,5.17015 c 0.65717,-0.53909 1.60188,-1.22708 2.88029,-1.97153 0.32859,-0.1951 0.68285,-0.3902 1.05764,-0.58531 0.59557,-0.31318 1.20654,-0.61096 1.83805,-0.89334 -0.46722,-0.51856 -1.13465,-0.98064 -1.87912,-1.38624 -2.50036,-1.36056 -5.91974,-2.06395 -5.91974,-2.06395 2.1307,2.24365 2.28986,4.9545 2.02288,6.90037 z m 11.12068,-8.42522 c 0,0 -3.78904,-0.0462 -6.45882,2.82381 0,0 1.42218,0.88821 2.1923,1.65835 1.90993,-0.80095 4.22545,-1.46839 5.91461,-1.84832 -0.33373,-1.11412 -1.64809,-2.63384 -1.64809,-2.63384 z m -5.76571,0.99089 c -1.50945,-1.92532 -3.27049,-2.51576 -3.27049,-2.51576 -0.78553,1.06792 -1.2476,1.951 -1.48891,2.65439 1.08331,0.30291 1.87398,0.6315 3.20374,1.26815 0.48775,-0.54424 0.92929,-0.98064 1.55566,-1.40678 z"
       inkscape:connector-curvature="0"
       style="stroke-width:0.05134205;fill:#ffffff;fill-opacity:0.99526066" />
  </g>
</svg>
