<?xml version="1.0" encoding="UTF-8" standalone="no"?>
<svg
   xmlns:osb="http://www.openswatchbook.org/uri/2009/osb"
   xmlns:dc="http://purl.org/dc/elements/1.1/"
   xmlns:cc="http://creativecommons.org/ns#"
   xmlns:rdf="http://www.w3.org/1999/02/22-rdf-syntax-ns#"
   xmlns:svg="http://www.w3.org/2000/svg"
   xmlns="http://www.w3.org/2000/svg"
   xmlns:sodipodi="http://sodipodi.sourceforge.net/DTD/sodipodi-0.dtd"
   xmlns:inkscape="http://www.inkscape.org/namespaces/inkscape"
   id="svg8"
   version="1.1"
   viewBox="0 0 150.22784 150.35635"
   height="150.35635mm"
   width="150.22784mm"
   sodipodi:docname="inkscape.svg"
   inkscape:version="0.92.2 5c3e80d, 2017-08-06">
  <sodipodi:namedview
     pagecolor="#ffffff"
     bordercolor="#666666"
     borderopacity="1"
     objecttolerance="10"
     gridtolerance="10"
     guidetolerance="10"
     inkscape:pageopacity="0"
     inkscape:pageshadow="2"
     inkscape:window-width="1288"
     inkscape:window-height="847"
     id="namedview28"
     showgrid="true"
     fit-margin-top="0"
     fit-margin-left="0"
     fit-margin-right="0"
     fit-margin-bottom="0"
     scale-x="1e-05"
     inkscape:pagecheckerboard="true"
     inkscape:zoom="1.1126127"
     inkscape:cx="282.91218"
     inkscape:cy="283.42916"
     inkscape:window-x="57"
     inkscape:window-y="0"
     inkscape:window-maximized="0"
     inkscape:current-layer="svg8">
    <inkscape:grid
       type="xygrid"
       id="grid49" />
  </sodipodi:namedview>
  <defs
     id="defs2">
    <linearGradient
       osb:paint="gradient"
       id="linearGradient4524">
      <stop
         id="stop4520"
         offset="0"
         style="stop-color:#000000;stop-opacity:1;" />
      <stop
         id="stop4522"
         offset="1"
         style="stop-color:#000000;stop-opacity:0;" />
    </linearGradient>
  </defs>
  <metadata
     id="metadata5">
    <rdf:RDF>
      <cc:Work
         rdf:about="">
        <dc:format>image/svg+xml</dc:format>
        <dc:type
           rdf:resource="http://purl.org/dc/dcmitype/StillImage" />
        <dc:title></dc:title>
      </cc:Work>
    </rdf:RDF>
  </metadata>
  <g
     id="g439"
     transform="matrix(2.2726942,0,0,2.2726942,-0.39689543,-0.02372691)">
    <ellipse
       style="fill:none;fill-opacity:1;stroke:#000000;stroke-width:1.43678105;stroke-miterlimit:4;stroke-dasharray:none;stroke-opacity:1"
       ry="20.634621"
       rx="21.987301"
       cy="32.117477"
       cx="33.359779"
       id="path10" />
    <path
       id="ellipse4532"
       d="M 34.672797,11.332556 C 33.647934,6.1378001 33.19222,2.2129021 31.628338,2.2129021 c -3.127782,0 -5.210736,12.5220649 -5.210736,28.3759199 0,15.853855 2.428885,30.222822 5.556658,30.222822 2.054266,-0.355514 2.195734,-6.015498 2.441154,-7.688037"
       style="fill:none;fill-opacity:1;stroke:#000000;stroke-width:1.49653625;stroke-miterlimit:4;stroke-dasharray:none;stroke-opacity:1;paint-order:markers fill stroke"
       inkscape:connector-curvature="0" />
    <path
       id="ellipse4534"
       d="M 16.711471,18.05894 C 11.494558,15.046314 7.4873088,12.273958 6.3090514,13.378923 3.9525384,15.588861 13.038786,26.625256 26.603757,38.029398 40.168725,49.433549 52.773904,57.428181 55.130417,55.218243 56.308673,54.11327 53.871885,50.308588 50.199272,45.847728"
       style="fill:none;fill-opacity:1;stroke:#000000;stroke-width:1.50001895;stroke-miterlimit:4;stroke-dasharray:none;stroke-opacity:1;paint-order:markers fill stroke"
       inkscape:connector-curvature="0" />
    <path
       id="ellipse4536"
       d="m 50.212598,18.124562 c 3.548049,-4.388988 4.267663,-5.672136 3.265736,-6.862009 C 51.474479,8.8828252 39.447519,15.883113 26.61538,26.898152 13.783241,37.913181 5.0051897,48.771797 7.009055,51.15152 c 1.1236205,1.281129 5.117205,-0.925248 9.741603,-4.621584"
       style="fill:none;fill-opacity:1;stroke:#000000;stroke-width:1.49101484;stroke-miterlimit:4;stroke-dasharray:none;stroke-opacity:1;paint-order:markers fill stroke"
       inkscape:connector-curvature="0" />
    <path
       id="path4651"
       d="m 20.095152,15.832056 c -0.25094,0.614476 -0.341971,1.293462 -0.261747,1.952341 0.08022,0.658869 0.331527,1.296175 0.722587,1.832485 0.391059,0.536301 0.921011,0.970425 1.523805,1.248254 0.602795,0.277829 1.2771,0.398759 1.938875,0.347707 0.746356,-0.05757 1.462119,-0.328487 2.12579,-0.674758 0.66367,-0.34627 1.284123,-0.768651 1.924322,-1.156593 0.640207,-0.38795 1.308137,-0.7448 2.029847,-0.943525 0.721718,-0.198716 1.506222,-0.230878 2.210066,0.02398 0.788714,0.285608 1.416218,0.907063 1.887683,1.600866 0.471466,0.693795 0.809105,1.467673 1.195847,2.212034 0.386733,0.744362 0.836069,1.476111 1.477365,2.016814 0.320653,0.270361 0.687525,0.489478 1.086422,0.619075 0.398887,0.129597 0.830467,0.167644 1.241572,0.08457 0.556482,-0.112483 1.053959,-0.442636 1.43391,-0.864486 0.379951,-0.42186 0.650129,-0.932068 0.861347,-1.459042 0.422445,-1.053958 0.627797,-2.201939 1.207571,-3.17823 0.529693,-0.891953 1.360764,-1.596922 2.318046,-1.996624 0.957282,-0.399702 2.035036,-0.495783 3.052952,-0.295777 0.768497,0.151005 1.503907,0.468162 2.141186,0.923418"
       style="fill:none;stroke:#000000;stroke-width:0.79903805;stroke-linecap:butt;stroke-linejoin:miter;stroke-miterlimit:4;stroke-dasharray:none;stroke-opacity:1"
       inkscape:connector-curvature="0" />
    <path
       id="path4655"
       d="m 15.527897,45.008237 c 0.448074,-0.794416 1.138446,-1.449999 1.954938,-1.856456 0.816492,-0.406447 1.755743,-0.562083 2.659694,-0.440704 0.90492,0.121507 1.751092,0.508523 2.564118,0.924022 0.813025,0.41549 1.615707,0.867104 2.488677,1.134627 0.939992,0.288062 1.951335,0.353025 2.914828,0.157448 0.963488,-0.195585 1.876262,-0.65465 2.587107,-1.333819 0.487034,-0.465333 0.873556,-1.023957 1.315835,-1.532022 0.442279,-0.508066 0.963148,-0.97944 1.603548,-1.188324 0.419435,-0.13681 0.87568,-0.153238 1.306802,-0.05949 0.431122,0.0937 0.836653,0.296107 1.179071,0.574302 0.684852,0.556381 1.100571,1.404786 1.219515,2.279102 0.07661,0.562916 0.03816,1.134746 0.07166,1.701854 0.0335,0.567107 0.148927,1.152145 0.489734,1.606669 0.316525,0.422144 0.806304,0.694701 1.320722,0.811997 0.514426,0.117288 1.053198,0.08896 1.571643,-0.0092 1.036907,-0.195952 2.012613,-0.664315 3.058709,-0.803 1.351191,-0.17914 2.770154,0.230767 3.817669,1.10285"
       style="fill:none;stroke:#000000;stroke-width:0.79900104;stroke-linecap:butt;stroke-linejoin:miter;stroke-miterlimit:4;stroke-dasharray:none;stroke-opacity:1"
       inkscape:connector-curvature="0" />
    <path
       id="path4659"
       d="m 54.44507,38.358444 c -0.399684,0.373269 -0.914321,0.621728 -1.455198,0.702544 -0.540886,0.08082 -1.10566,-0.0064 -1.597004,-0.24651 -0.491335,-0.240149 -0.9071,-0.632217 -1.17563,-1.108625 -0.26853,-0.476417 -0.388664,-1.035123 -0.339699,-1.579807 0.04668,-0.518893 0.24262,-1.016699 0.513173,-1.461925 0.270562,-0.445235 0.614471,-0.841495 0.975815,-1.216806 0.362434,-0.376437 0.748059,-0.739062 1.02285,-1.183538 0.137395,-0.222237 0.245777,-0.464299 0.300444,-0.719796 0.05464,-0.255497 0.05427,-0.525007 -0.02041,-0.775388 -0.06507,-0.218211 -0.184868,-0.417494 -0.330519,-0.592533 -0.145641,-0.175039 -0.31701,-0.327014 -0.494849,-0.469232 -0.355679,-0.284437 -0.744197,-0.536631 -1.035865,-0.886406 -0.366185,-0.43914 -0.55606,-1.021285 -0.519213,-1.591879 0.03688,-0.570604 0.300005,-1.123489 0.719632,-1.511888 0.419626,-0.388408 0.991173,-0.608119 1.562912,-0.600825 0.571738,0.0073 1.137492,0.241531 1.547069,0.64051"
       style="fill:none;stroke:#000000;stroke-width:0.79900104;stroke-linecap:square;stroke-linejoin:round;stroke-miterlimit:4;stroke-dasharray:none;stroke-opacity:1;paint-order:stroke markers fill"
       inkscape:connector-curvature="0" />
    <g
       id="g418">
      <rect
         y="64.765167"
         x="0.22610134"
         height="1.3853608"
         width="8.6252537"
         id="rect4560"
         style="fill:#000000;fill-opacity:1;stroke:#000000;stroke-width:0.36596045;stroke-miterlimit:4;stroke-dasharray:none;stroke-opacity:1;paint-order:markers fill stroke" />
      <rect
         transform="matrix(-0.00179,-0.9999984,0.99998452,-0.00556329,0,0)"
         style="fill:#000000;fill-opacity:1;stroke:#000000;stroke-width:0.34403414;stroke-miterlimit:4;stroke-dasharray:none;stroke-opacity:1;paint-order:markers fill stroke"
         id="rect4564"
         width="9.5091839"
         height="1.1105198"
         x="-66.168655"
         y="0.062813088" />
    </g>
    <g
       id="g406">
      <rect
         style="fill:#000000;fill-opacity:1;stroke:#000000;stroke-width:0.07968094;stroke-miterlimit:4;stroke-dasharray:none;stroke-opacity:1;paint-order:markers fill stroke"
         id="rect4603"
         width="8.8863373"
         height="1.4259499"
         x="-66.126053"
         y="-1.4867098"
         transform="scale(-1)" />
      <rect
         y="-66.172546"
         x="0.4103609"
         height="1.1441346"
         width="9.7877893"
         id="rect4605"
         style="fill:#000000;fill-opacity:1;stroke:#000000;stroke-width:0.07968122;stroke-miterlimit:4;stroke-dasharray:none;stroke-opacity:1;paint-order:markers fill stroke"
         transform="matrix(0.00179169,0.99999839,-0.99998455,0.00555805,0,0)" />
    </g>
    <g
       id="g414">
      <rect
         y="-1.5844302"
         x="0.23143971"
         height="1.3853271"
         width="8.6256981"
         id="rect4609"
         style="fill:#000000;fill-opacity:1;stroke:#000000;stroke-width:0.36596543;stroke-miterlimit:4;stroke-dasharray:none;stroke-opacity:1;paint-order:markers fill stroke"
         transform="scale(1,-1)" />
      <rect
         transform="matrix(-0.00179014,0.9999984,0.99998453,0.00556287,0,0)"
         style="fill:#000000;fill-opacity:1;stroke:#000000;stroke-width:0.34403881;stroke-miterlimit:4;stroke-dasharray:none;stroke-opacity:1;paint-order:markers fill stroke"
         id="rect4611"
         width="9.5089531"
         height="1.1105769"
         x="0.18039197"
         y="0.18691604" />
    </g>
    <g
       id="g410">
      <rect
         y="65.061691"
         x="-65.768463"
         height="1.3707793"
         width="8.6244516"
         id="rect4597"
         style="fill:#000000;fill-opacity:1;stroke:#000000;stroke-width:0.36401248;stroke-miterlimit:4;stroke-dasharray:none;stroke-opacity:1;paint-order:markers fill stroke"
         transform="matrix(-0.99998598,0.00529596,0.00319848,0.99999488,0,0)" />
      <rect
         transform="matrix(-0.00138962,-0.99999903,-0.99999998,-2.0934562e-4,0,0)"
         style="fill:#000000;fill-opacity:1;stroke:#000000;stroke-width:0.3422015;stroke-miterlimit:4;stroke-dasharray:none;stroke-opacity:1;paint-order:markers fill stroke"
         id="rect4599"
         width="9.409132"
         height="1.1104032"
         x="-66.087334"
         y="-65.933083" />
    </g>
  </g>
</svg>
